<?xml version="1.0" encoding="utf-8"?>
<!-- Generator: Adobe Illustrator 24.2.0, SVG Export Plug-In . SVG Version: 6.00 Build 0)  -->
<svg version="1.1" id="Layer_1" xmlns="http://www.w3.org/2000/svg" xmlns:xlink="http://www.w3.org/1999/xlink" x="0px" y="0px"
	 viewBox="0 0 964.8 964.8" style="enable-background:new 0 0 964.8 964.8;" xml:space="preserve">
<style type="text/css">
	.st0{fill:#FD0203;}
	.st1{fill:#0102FC;}
</style>
<g>
	<g>
		<g>
			<path class="st0" d="M-471,8c83.9,6.7,165.4,40.1,229.6,94.5c2.9,2.4,5.7,4.8,8,7.8c-40.2,0.4-80.4,0.1-120.6,0.2
				c-58.3,0-116.7,0-175,0c-83.1-0.1-166.3,0.2-249.4-0.1c9.9-10.1,21.5-18.3,32.6-26.9c12.6-8.6,25.2-17.4,38.6-24.6
				C-650.7,27-586.6,9.2-521.9,6.9C-514.5,6.3-490.2,5.8-471,8z M-515.8,50.2c-10,1.6-20.2,1.4-30.3,2.4c7.2,6.2,15.5,11,22.5,17.4
				c-2.3,9.3-5.1,18.5-7.2,27.9c8.1-5,15.9-10.3,24-15.3c8.8,4.6,17,10.2,25.6,15.2c-1.6-9-5.7-17.5-7.3-26.5
				c7.1-6.7,15.6-11.9,22.7-18.7c-9.6-0.4-19.2-0.7-28.8-1c-3.4-9.1-7.4-18-11.3-26.8C-509.5,33.2-511.9,42-515.8,50.2z"/>
		</g>
		<g>
			<path class="st0" d="M-523.2,163.9c5-6.9,13.8-11.3,22.4-9.8c7.2,0.8,13.1,5.9,17.1,11.6c7.2,11.6,5.9,27.2-2.3,37.9
				c12.6,0.3,25.2-0.3,37.8,0.2c0,2.1,0,4.2,0,6.3c-12.5,0.4-25.1,0-37.6,0.2c0.9,6.8,2.9,13.5,4.4,20.2
				c40.7,3.9,80.7,17.5,114.8,40.2c8.4,5.4,16.1,11.9,24.1,17.9c5.9,5.4,11.9,10.7,17.6,16.4c8.5,8.9,16.3,18.6,24,28.2
				c6.4-3.2,12.7-6.6,19.1-9.8l0.9,0c3.4,3.7,5.9,8.1,8.6,12.3c6.9-2.1,11.7-7.8,16.2-13.1c9.2-10.6,19.7-21.3,33.7-25.1
				c6.5-0.9,14.2-1.3,19.3,3.6c3.4,2.8,2.9,7.8,1.3,11.5c-3.7,8.2-10.8,14.4-18.6,18.5c-14.1,7.3-31,6.8-44.9,14.4
				c2.2,4.8,5.2,9.3,6.3,14.4c0.6,2.4-2.1,3-3.6,4.1c-5.1,2.8-9.9,6-15,8.6c0.7,2.8,2,5.4,3.2,8c27.5,63.5,26.6,138.8-2.9,201.5
				c5.3,5,12.4,7.8,18,12.2c0.5,5.5-5.8,9.6-5.2,15.1c7.9,6.8,19,6.2,28.5,9c10.4,3,21.2,6.8,28.7,14.9c4.7,5.2,7.8,12.5,5.8,19.6
				c-1.5,2.6-4,5.1-7.2,5.4c-9.4,1.4-19-1.8-26.9-6.8c-13.4-8.7-21.3-23.6-35-31.9c-2.9,4.2-5.4,8.9-9.1,12.5
				c-1.5,1.2-3.3,0.2-4.7-0.6c-5.5-3.1-10.8-6.4-16.3-9.4c-14.9,21.3-33.6,39.7-54.2,55.5c-15.7,11.2-32.4,21.1-50.1,28.8
				c-23.5,10.1-48.5,16.6-74,19.1c-0.8,12.4-1.8,24.8-2.3,37.2c1.9,5,6.8,7.9,11.4,10.1c11.2,4.4,23.6,4.3,35.4,2.8
				c21.5-2.6,42.4-12.4,57.3-28.3c1.3-1,0.9-2.6,1-4c-9.9-5-21.2-4.8-31.9-6.2c28.2-9.5,56.8-18.1,85.1-27.4c2.6-0.9,5.3-1.6,8-1.9
				c-5.2,12.4-11.1,24.5-16.9,36.7c-5.8,13.1-12.1,25.9-17.8,39.1c-2.5-8.3-3-17.1-5.2-25.6c-6.6,4.9-12,11.2-18.5,16.2
				c-12,10.2-25.1,19.5-39.7,25.6c-12.5,5.8-25.6,10.1-38.7,14.2c-18.3,6-36.9,12.5-52,24.7c-6-5.5-13.2-9.6-20.6-12.9
				c-18.2-8.9-38.1-13.4-57-20.7c-10.4-4.1-20.8-8.7-30.3-14.6c-8.7-5.1-16.4-11.7-24.3-18c-5.5-5-10.9-10.2-16.5-15.1
				c-1.6,8.7-2.9,17.5-4.8,26.2c-6.3-13.3-12.3-26.7-18.7-40c-5.3-12-11.3-23.7-16.2-35.9c4.8,0.7,9.4,2.5,14,4
				c26.4,8.4,52.8,16.8,79.1,25.4c-9.9,1.4-20.3,1.1-29.6,5.2c-1.9,0.7-3.5,3-1.8,4.7c20.2,21.6,51,31.9,80.2,29
				c9.1-1.1,18.9-4.5,24.1-12.6c0.7-2.9-0.2-5.8-0.3-8.7c-0.3-9.6-1.3-19.2-1.5-28.8c-11-1.7-22-2.8-32.8-5.5
				c-37.1-8.4-72.2-25.5-101.8-49.5c-7.2-5.4-13.4-11.9-20.1-17.9c-9.2-9.3-17.4-19.6-25.5-30c-5.5,2.8-11,5.7-16.5,8.5
				c-1.2,0.6-2.6,1.5-4,0.7c-2.7-3.2-4.5-6.9-7-10.2c-0.7-1.1-2-1.5-3.2-1c-3.5,1.1-6,4.1-8.6,6.5c-6.8,6.6-12.1,14.5-19.7,20.3
				c-8.1,6.5-18.1,12.6-28.9,11.2c-3.7-0.5-7.4-1.8-10.2-4.3c-3.3-4.1-2-10.1,0.5-14.2c5.5-8.9,14.6-15.3,24.5-18.5
				c12.4-4.3,25.6-5.6,37.7-10.9c-1.9-5.7-6.2-10.7-6.6-16.9c6.3-3.5,12.4-7.3,18.7-10.9c-15.6-33.9-23.8-71.2-23.3-108.5
				c0.4-26.5,4.9-53,13.7-78c2.3-7.8,6.2-15,8.7-22.6c-5.5-3.8-11.2-7.2-16.9-10.7c-1.3-0.6-1.1-2.2-0.7-3.2
				c1.6-4.4,5.1-8.2,5.4-13.1c-9-6.1-20.2-6.2-30.4-8.9c-9.5-2.8-19.2-6.5-26.4-13.5c-5.2-4.9-8.4-12.2-7.2-19.4
				c1-3.8,4.9-5.9,8.5-6.8c7.8-1,15.7,1.5,22.6,5.1c15.2,8.3,24.1,24.1,38.2,33.8c3.3-4.6,6.3-9.5,10.1-13.8c7,2.9,13.4,7,20,10.8
				c7.5-9.6,15-19.2,23.4-28c9.1-9,18.4-17.7,28.5-25.5c37.3-28.7,82.8-46.3,129.7-50.6c1.3-6.8,3.6-13.3,4.2-20.2
				c-12.5-0.1-24.9,0-37.3-0.1c0-2.2-0.1-4.5,0-6.7c12.5-0.1,25.1,0.1,37.6-0.1c-1.7-3.5-4-6.7-5.1-10.5
				C-530.8,183.4-529.5,172.1-523.2,163.9z M-507.5,169.3c-4.1,2.8-5.3,8.1-5.6,12.8c-0.2,5.3,1.2,11.2,5.6,14.5
				c2.1,2,5.7,1.5,7.6-0.6c5.9-6.5,6.2-17.1,1.5-24.3C-500.3,168.7-504.6,167.1-507.5,169.3z M-507.6,261.3
				c-12.9,0.2-25.8,1.4-38.4,3.9c-27,4.9-52.6,15.7-75.9,30c-10,6.8-19.9,13.8-28.7,22.1c-11.8,10-21.6,21.9-31,34.1
				c-29.9,41.1-44.6,93-40.5,143.7c2.2,31.7,12.1,62.7,27.7,90.3c17.6,30.2,42.1,56.5,71.6,75.3c30.9,20,67.1,31.9,103.8,34.3
				c39.5,2.6,79.7-5.6,114.8-24c25.9-13.4,49.2-31.9,67.7-54.5c26.5-31.5,43.4-70.9,48.4-111.8c5.6-45.2-3.5-92.2-25.8-132
				c-16.5-29.5-39.9-55.3-68.2-74C-418.5,273.7-463.2,260.6-507.6,261.3z"/>
		</g>
		<g>
			<path class="st0" d="M-554.8,294.2c6.8-5.9,13.5-12,20.9-17c1.2,1.6,2.5,3.4,2.9,5.5c-13.5,9.8-25.6,21.3-36.9,33.5
				c-3.7,4.5-8.2,8.4-11.1,13.6c23.5,4.5,47.5,6.7,71.5,6.7c0.2-19.6,0-39.2,0.1-58.8c2,0,4,0.1,6,0.1c0.1,19.6-0.1,39.2,0.1,58.8
				c24.3,0,48.6-2.3,72.5-6.8c-7.9-10.8-17.5-20.3-27.1-29.6c-7-6.3-14-12.5-21.6-18.1c1.1-1.7,2.3-3.3,3.5-4.9
				c19.3,14.1,36.4,31.2,51.2,49.9c0.8,1.3,2.6,0.8,3.9,0.8c9.8-1.5,19.2-4.8,28.9-6.6c0.4,1.8,0.8,3.7,1.1,5.5
				c-9.1,3-18.6,4.8-28,6.8c0.9,3.2,3.2,5.7,5,8.4c11.3,17,19.6,35.8,25.9,55.1c2.3,7.1,3.9,14.5,6,21.7c15.2-3.9,30.2-8.7,44.9-14
				c3.5-1.3,7.1-2.8,10.8-3.6c0.3,1.8,1.8,3.7,1.1,5.5c-6.8,3.1-14.1,5.3-21.2,7.7c-11.3,4-22.7,7.4-34.3,10.3
				c0.2,5.1,1.6,10,2.1,15c2.4,16.8,3,33.9,2.4,50.8c-2-0.1-4-0.1-6-0.1c0.7-20.3-0.3-40.8-4.1-60.8c-0.3-1.2-0.5-3.5-2.3-2.7
				c-37.5,9.2-76,14.6-114.7,14.8c-0.2,17.5,0.1,35-0.2,52.5c-2-0.1-4-0.2-6-0.3c0.1-17.4,0.1-34.8,0-52.2
				c-38.9-0.1-77.7-5.5-115.5-14.7c-4.7,20.7-5.1,42.1-5.1,63.3c-1.9,0-3.7,0-5.6,0c-1.2-18.1,0.1-36.3,2.8-54.3
				c0.5-3.7,1.4-7.4,1.6-11.1c-19.3-4.5-38-11.1-56.5-18.2c0.4-1.9,0.9-3.7,1.4-5.5c3.8,0.6,7.3,2.4,10.9,3.7
				c10.7,3.8,21.3,7.7,32.3,10.7c4.5,1.2,8.9,3,13.6,3.3c5.1-24.2,14.1-47.7,26.6-69.1c3-5.7,7.4-10.4,10.3-16.1
				c-10-2-19.9-4.3-29.7-7c0.7-1.8,1.3-3.6,1.9-5.5c9.6,2,19.1,4.9,28.8,6.6c1.5,0,3.6,0.8,4.7-0.8
				C-576.2,315-565.6,304.4-554.8,294.2z M-584.3,335.5c-2.3,3.7-5.1,7.2-7.3,11c-13.6,20.7-22.9,44-29,68c-0.6,2.2-0.9,4.5-1.1,6.8
				c12.4,2.4,24.6,5.8,37.2,7.6c25.4,4.3,51.2,6.8,76.9,6.7c0-31.1,0.3-62.1-0.2-93.2c-21.1,0.1-42.1-1.9-62.9-5
				C-575.3,336.8-579.7,335.4-584.3,335.5z M-501.5,342.4c0,31.1,0,62.1,0,93.2c38.9-0.3,77.6-5.6,115.3-15.1
				c-6.4-29.1-17.9-57.4-35.4-81.6c-1.3-1.7-2.7-4.5-5.3-3.3C-451.5,340-476.5,342.5-501.5,342.4z"/>
		</g>
		<g>
			<path class="st0" d="M-701.8,510.3c1.9-0.3,3.8-0.6,5.8-0.6c59.7,0,119.4,0,179.1,0c4.8,5.8,8.5,12.4,12.9,18.5
				c3.4-5,6.9-9.9,10.2-15.1c1.2-1.6,2.4-3.8,4.8-3.4c60.4,0.1,120.7-0.2,181.1,0.1c-4.9,10.3-11,19.9-16.4,30
				c-19.7,35-39.3,69.9-59,104.9c-2.1,3.2-3.2,7.2-6,9.8c-33.3,0.2-66.5,0.2-99.8,0c-5.8,6.9-9.7,15.2-15.7,21.9
				c-4.9-7.1-9.3-14.6-14-21.8c-31.4-0.1-62.7,0-94.1,0c-2.6-0.5-6.5,1.2-8.1-1.4c-25.7-45.7-51.4-91.4-77-137.1
				C-699.3,514.2-700.5,512.2-701.8,510.3z M-690.8,515.8c5.4,12.1,13,23.2,19.1,35c16.1,28.5,32.1,57.1,48.2,85.6
				c2.3,4.1,4.4,8.4,7.2,12.3c33.6-0.2,67.2-0.1,100.8-0.1c4,5.5,6.6,11.9,11.3,16.8c4-5.5,7.3-11.5,11.7-16.8
				c33.2-0.3,66.5-0.1,99.8-0.1c1-1.5,2-3.1,2.9-4.6c19.4-34.5,38.8-69,58.2-103.5c4.3-8.3,9.6-16.1,13.4-24.6
				c-55.6-0.2-111.2,0-166.8-0.1c-1.4-0.1-3,0.2-3.9,1.4c-5.2,7-9.7,14.5-15,21.3c-5.5-6.8-10.2-14.1-15-21.4
				c-0.7-1.7-2.5-1.2-3.9-1.3C-578.8,515.8-634.8,515.7-690.8,515.8z"/>
		</g>
		<path class="st0" d="M-630.7,555c7.3-0.2,14.6-0.1,21.9-0.1c5,17.5,10.5,34.8,16,52.1c4-9.6,6.7-19.8,10.2-29.6
			c2.7-7.4,4.7-15.1,7.6-22.5c6.4,0.1,12.8-0.2,19.2,0.2c-0.7,3.7-2.1,7.2-3.4,10.7c-7.6,20.6-14.9,41.2-22.4,61.8c-8,0-16,0-24,0
			c-6.4-18.2-12.9-36.4-19.1-54.6C-626.7,567-629.3,561.1-630.7,555z"/>
		<path class="st0" d="M-547.9,555.1c10.5-0.3,21.1-0.6,31.6,0.2c2.9,12.9,6.3,25.7,9.3,38.6c0.7,3.1,1.3,6.4,2.7,9.3
			c3.9-15.9,7.7-31.8,11.1-47.8c5.1-0.9,10.2-0.4,15.3-0.5c5.3,0.1,10.7-0.3,16,0.3c0.4,24.1,0.2,48.1,0.1,72.2
			c-5.7,0.1-11.5,0.2-17.2,0.1c-0.5-20.2,0.4-40.4-0.5-60.5c-5.9,20.1-11.4,40.4-17,60.6c-6,0-12-0.1-18,0
			c-5.4-20.5-10.3-41.2-15.9-61.6c-0.6,20.5,0.4,41.1-0.4,61.6c-5.6-0.2-11.2-0.2-16.8,0C-548.4,603.5-548,579.3-547.9,555.1z"/>
		<path class="st0" d="M-446.8,555c6.5-0.1,13-0.4,19.5,0.3c-0.2,13.9,0,27.8-0.1,41.7c0,5,0.6,10.5,4.4,14.1
			c3.7,4.4,10,4.2,15.2,3.4c5.8-1,9.2-7.1,9.6-12.6c0.6-15.7-0.5-31.4,0.6-47.1c6.5-0.1,13-0.1,19.5,0.1c0.1,15.4,0.1,30.8,0,46.1
			c0.1,6.1-1.8,12.3-5.7,17c-4,5.4-10.4,8.3-16.8,9.9c-9.5,1.9-19.5,1.7-28.6-1.6c-9.1-3.6-17.2-12-17.5-22.3
			c-0.4-9-0.1-18.1-0.2-27.1C-446.9,569.7-447.4,562.3-446.8,555z"/>
	</g>
	<g>
		<path class="st1" d="M-791.4,156.5c5.1-2.9,10.9-4.3,16.7-4.5c-9.8,19.6-23.9,36.7-37.9,53.4c-5.3,6.5-12,12.7-20.7,14.1
			c-7.5,1.7-15.2-0.7-21.5-4.7c0-0.4,0-1.1,0-1.4c12.6-9.7,23.4-21.4,34.2-33C-811.9,171.4-802.5,162.7-791.4,156.5z"/>
		<path class="st1" d="M-231.2,152c12.4,0.1,22.9,7.7,32.1,15.3c4.2,3.7,8.5,7.5,12.5,11.5c11.3,12.5,22.9,24.9,36.2,35.4
			c-7.9,6.1-19.1,7.8-28.2,3.5c-8.5-3.7-13.7-11.6-19.7-18.2C-210.4,184.5-222.3,169.1-231.2,152z"/>
		<path class="st1" d="M-869.3,201.8c3-3.4,6.3-6.5,10.2-8.7c-0.2,1.1-0.4,2.2-0.8,3.2c-9.8,25.2-18.6,51.5-18.8,78.9
			c5.7-4.4,11.4-9,18.3-11.2c12.2-3.9,22.1-12.2,31.9-20.2c-5.5,20.4-16.3,40.8-34.9,52c-10,5.6-20.4,10.4-30.9,15
			c-4.2,1.7-8.4,3.6-12.9,4.3c-0.2-6.3,0.5-12.6,0.8-18.9c1.4-17.2,2.4-34.8,8-51.2C-891.3,228.9-880.7,214.8-869.3,201.8z"/>
		<path class="st1" d="M-146.9,193.1c6.6,3.5,11.1,9.6,15.8,15.1c9,11.3,17.8,23.2,23.4,36.6c4.9,14.2,6.2,29.3,7.5,44.2
			c0.6,8.7,1.5,17.4,1.4,26.1c-12.7-2.9-24.2-9.6-36-15.1c-10-4.6-19.1-11.4-25.7-20.3c-7.8-10.6-13.7-22.8-16.7-35.6
			c6.3,4.8,12.2,10.3,19.2,14.1c6.7,4.5,14.9,5.9,21.7,10.3c3.4,2,6.4,4.7,9.2,7.4c-0.3-24.1-7-47.6-15.3-70.1
			C-143.9,201.5-146,197.5-146.9,193.1z"/>
		<path class="st1" d="M-951.1,323.9c2.9-14.2,7.1-28.1,11.5-41.9c6.2,29.6,11.8,59.4,18.1,89c14.6-10.9,29-22,43.6-32.9
			c-1.7,13.5-4.3,27-9.4,39.7c-1.9,5.3-6.3,9-10.4,12.6c-12.2,10.3-24.4,20.6-36.9,30.6c-6.2-24-13.3-47.8-18-72.1
			C-954.3,340.6-952.7,332.1-951.1,323.9z"/>
		<path class="st1" d="M-66.3,282c3.6,10.5,6.6,21.1,9.3,31.9c2.7,11.9,6.2,24.4,3.5,36.6c-4.8,23.8-11.5,47.1-17.8,70.5
			c-11.8-9.7-23.6-19.4-35.2-29.3c-4.7-4-9.8-8-12-14c-5.2-12.6-7.5-26.2-9.5-39.6c14.7,10.8,29.1,22.1,43.7,33
			C-78.2,341.4-72.3,311.7-66.3,282z"/>
		<path class="st1" d="M-969.8,393c6.2,15,11.5,30.3,17.4,45.4c5.4,14.9,11.4,29.6,16.6,44.5c10.2-17,20.1-34.3,29.8-51.6
			c2.2,12.1,3.3,24.5,2.2,36.8c-0.7,7.6-3.4,14.9-6.6,21.8c-7.1,15.2-15.2,29.9-23.7,44.3c-11.4-17.5-22.1-35.5-32.1-53.9
			c-3.9-7.8-8.4-15.7-9.5-24.5c-1.3-10.2,0-20.4,0.9-30.6C-973.4,414.5-972,403.7-969.8,393z"/>
		<path class="st1" d="M-70.3,482.9c11.6-29.9,22.4-60.1,34.2-89.9c2.9,14.2,4.8,28.6,6,43.1c0.6,10,1.2,20.5-2.8,30
			c-4.5,11-10.5,21.2-16.4,31.5c-6.6,11.6-13.8,22.9-20.8,34.3c-0.6,0.7-0.9,2.6-2.1,1.5c-9.3-16.3-18.7-32.6-25.9-50
			c-4-9.2-4.6-19.4-4.2-29.3c0.3-7.4,1-14.9,2.6-22.2C-89.8,448.8-80.1,465.9-70.3,482.9z"/>
		<path class="st1" d="M-68.4,558.6c15.2-16.8,30.3-33.7,45.5-50.6v2.1c-1.9,6.6-2.1,13.5-3.5,20.3c-2.3,11.8-4.5,23.8-9.8,34.6
			c-5.2,8.8-12.9,15.7-19.4,23.5c-9.1,9.5-18.3,19.1-27.4,28.6c-6.5,6.4-12.5,13.3-19.4,19.3c-3.5-10.8-6.8-21.7-9.7-32.7
			c-3.1-11.1-6-22.3-7.4-33.8c-1-7.4,0.2-14.9,2.1-22c2.7-10.2,6.3-20.2,10.8-29.8c5.9,21.3,11.6,42.7,17.4,64
			C-82.5,574-75.4,566.3-68.4,558.6z"/>
		<path class="st1" d="M-981.8,509.5c4.1,3.4,7.1,7.8,10.8,11.6c15.4,17.2,30.9,34.4,46.4,51.6c2.7,2.8,4.9,6.2,8.2,8.5
			c5.9-21,11.4-42.2,17.1-63.3c5.2,10.6,8.9,22,11.8,33.4c2.1,8,1.9,16.3,0.4,24.4c-3.8,20.6-10.1,40.6-16.2,60.5
			c-8.2-7.1-15.3-15.2-22.9-22.9c-11.9-12.5-24-24.6-35.3-37.7c-2.4-2.6-4.8-5.4-6.6-8.5c-5-7.7-6.8-16.8-9-25.6
			C-979.2,531-981.7,520.4-981.8,509.5z"/>
		<path class="st1" d="M-877.7,609.9c6.9,14.5,13.3,29.3,19.8,44c1.8,3.8,3.5,7.8,3.7,12.1c1.8,19,1.7,38,2.4,57.1
			c-0.1,9,0.4,18.1,0,27.1c-15.9-11.2-31.6-22.5-47.2-34c-7.6-6-15.7-11.5-22.8-18.2c-6.4-6.3-13.4-12.2-17.4-20.4
			c-7.9-15.9-14.3-32.5-21.3-48.9c2.7,1.5,5.3,3.3,7.7,5.3c16.2,12.2,32.5,24.2,48.7,36.3c7.3,4.9,13.8,10.9,21.4,15.4
			c1.4-19.2,2.4-38.4,3.7-57.5C-878.7,622-878.6,615.9-877.7,609.9z"/>
		<path class="st1" d="M-145.8,649.1c5.8-13.1,11.5-26.3,17.7-39.2c2.2,25.3,3.1,50.7,5,76c3.6-1.9,6.6-4.6,9.8-7
			C-94.5,664.9-75.7,651-57,637c3.9-2.7,7.4-5.9,11.5-8.2c-3.9,10.4-8.5,20.5-12.8,30.8c-4.9,10.6-8.8,22.3-17.7,30.5
			c-14.3,15-31.7,26.6-48.2,38.8c-9.9,7.2-19.8,14.4-29.8,21.4c-0.4-15.7,0.3-31.4,0.5-47.1c0.5-13.1,0.5-26.2,2.1-39.1
			C-150.6,658.6-147.8,654-145.8,649.1z"/>
		<path class="st1" d="M-819.6,690c10.7,12.6,20.4,26,30.8,38.9c5.2,7.2,11.9,13.7,14.5,22.4c3,9.5,4.7,19.3,7.3,28.8
			c7,26,11,52.6,17,78.8c-17.9-6.5-35.6-13.5-53.3-20.5c-17.5-7.4-35.5-14.1-51.5-24.4c-7.6-4.7-12.5-12.2-18.1-18.9
			c-11.6-15-22.2-30.7-32.5-46.5c-0.9-1.4-1.7-2.8-2.5-4.3c35.6,16.5,71.1,33.1,106.7,49.7C-807.1,759.2-813.6,724.6-819.6,690z"/>
		<path class="st1" d="M-217.5,729.6c10.5-13.1,20.4-26.7,31.2-39.6c-5.9,34.5-12.4,68.9-18.3,103.5c10.3-3.9,20.1-9.1,30.1-13.6
			c25.6-11.8,51-23.8,76.5-35.6c-4.7,8.4-10.2,16.2-15.7,24.1c-5.9,8.7-12.1,17.3-18.5,25.7c-5.9,7.3-11.4,15.4-19.6,20.3
			c-18.1,11.3-38.3,18.6-58,26.8c-15.3,6.2-30.7,12-46.1,17.8c5.7-26.8,10.1-53.9,17.3-80.4c2.5-9,4.1-18.3,6.9-27.2
			C-229.1,742.8-222.6,736.5-217.5,729.6z"/>
		<path class="st1" d="M-681.5,874.8c24.3-9.1,49.4-17,75.5-17.7c34.7-1.2,68.2,11.8,97.4,29.7c1.8,0.9,4,3.1,6.1,1.6
			c28.9-18,62-31.7,96.6-31.2c30.3-0.2,59.3,10.2,87.3,20.7c30,10,63.3,13.2,93.7,3.2c-16.9,15-36.8,26.3-57.4,35.4
			c-8.1,4.2-17.6,4.8-26.6,4.7c-17.5-0.4-34.9-3.7-51.9-7.6c-13.1-2.9-25.8-7.3-38.9-9.9c-25.7-5.8-53-4.4-78,4.1
			c10.2,7.7,19.6,16.5,29.7,24.4c10.5,7.1,21.5,14.9,34.4,16.1c11.3,1.4,22.7,0.5,34-0.9c-7.9,7.8-19.4,10.9-30.3,11
			c-13.8,0.5-27.2-4-39.5-9.8c-11.3-5.8-21.9-12.9-33-19c-6.2-3.4-12.5-6.8-18.8-10c-1.3-0.5-2.7-1.7-4.1-0.8
			c-14.3,7-28,14.9-41.5,23.2c-15.6,9.4-33.3,17-51.9,16.4c-10.9,0-22.2-3.5-30.1-11.1c6.3,0.7,12.7,1.9,19.1,1.7
			c9.9,0.2,20.1-0.3,29.2-4.4c12.5-5.9,23.5-14.4,33.8-23.4c5.2-4.6,10.8-8.7,16.1-13.2c-8.8-3.6-18.3-5-27.7-6.4
			c-20.4-2.9-41.2-0.5-61.1,4.8c-18.8,5.3-37.8,10.2-57.2,12.9c-14.7,1.8-30.1,3.7-44.5-0.7c-22.2-9.4-43.7-21.1-61.7-37.2
			C-749.9,891.8-713.5,887.2-681.5,874.8z"/>
	</g>
</g>
<g>
	<g>
		<g>
			<path d="M513.8,8c83.9,6.7,165.4,40.1,229.6,94.5c2.9,2.4,5.7,4.8,8,7.8c-40.2,0.4-80.4,0.1-120.6,0.2c-58.3,0-116.7,0-175,0
				c-83.1-0.1-166.3,0.2-249.4-0.1c9.8-10.1,21.5-18.3,32.6-26.9c12.6-8.6,25.2-17.4,38.6-24.6C334.1,27,398.2,9.2,462.9,6.9
				C470.3,6.3,494.6,5.8,513.8,8z M469,50.2c-10,1.6-20.2,1.4-30.3,2.4c7.2,6.2,15.5,11,22.6,17.4c-2.3,9.3-5.1,18.5-7.2,27.9
				c8.1-5,15.9-10.3,24-15.3c8.8,4.6,17,10.2,25.6,15.2c-1.6-9-5.7-17.5-7.3-26.5c7.1-6.7,15.6-11.9,22.7-18.7
				c-9.6-0.4-19.2-0.7-28.8-1c-3.4-9.1-7.4-18-11.3-26.8C475.3,33.2,472.9,42,469,50.2z"/>
		</g>
		<g>
			<path d="M461.6,163.9c5-6.9,13.8-11.3,22.4-9.8c7.2,0.8,13.1,5.9,17.1,11.6c7.2,11.6,5.9,27.2-2.3,37.9
				c12.6,0.3,25.2-0.3,37.8,0.2c0,2.1,0,4.2,0,6.3c-12.5,0.4-25.1,0-37.6,0.2c0.9,6.8,2.9,13.5,4.4,20.2
				c40.7,3.9,80.7,17.5,114.8,40.2c8.4,5.4,16.1,11.9,24.1,17.9c5.9,5.4,11.9,10.7,17.6,16.4c8.5,8.9,16.3,18.6,24,28.2
				c6.4-3.2,12.7-6.6,19.1-9.8l0.9,0c3.4,3.7,5.9,8.1,8.6,12.3c6.9-2.1,11.7-7.8,16.2-13.1c9.2-10.6,19.7-21.3,33.7-25.1
				c6.5-0.9,14.2-1.3,19.3,3.6c3.3,2.8,2.9,7.8,1.3,11.5c-3.7,8.2-10.8,14.4-18.6,18.5c-14.1,7.3-31,6.8-44.9,14.4
				c2.2,4.8,5.2,9.3,6.3,14.4c0.6,2.4-2.1,3-3.5,4.1c-5.1,2.8-9.9,6-15,8.6c0.7,2.8,2,5.4,3.2,8c27.5,63.5,26.6,138.8-2.9,201.5
				c5.3,5,12.4,7.8,18,12.2c0.5,5.5-5.8,9.6-5.2,15.1c7.9,6.8,19,6.2,28.5,9c10.3,3,21.2,6.8,28.7,14.9c4.7,5.2,7.8,12.5,5.8,19.6
				c-1.5,2.6-4,5.1-7.2,5.4c-9.4,1.4-19-1.8-26.9-6.8c-13.4-8.7-21.3-23.6-35-31.9c-2.9,4.2-5.4,8.9-9.1,12.5
				c-1.5,1.2-3.3,0.2-4.7-0.6c-5.5-3.1-10.8-6.4-16.3-9.4c-14.9,21.3-33.6,39.7-54.2,55.5c-15.7,11.2-32.4,21.1-50.1,28.8
				c-23.5,10.1-48.5,16.6-74,19.1c-0.8,12.4-1.8,24.8-2.3,37.2c1.9,5,6.8,7.9,11.4,10.1c11.2,4.4,23.6,4.3,35.4,2.8
				c21.5-2.6,42.4-12.4,57.3-28.3c1.3-1,0.9-2.6,1-4c-9.9-5-21.2-4.8-31.9-6.2c28.2-9.5,56.8-18.1,85.1-27.4c2.6-0.9,5.3-1.6,8-1.9
				c-5.2,12.4-11.1,24.5-16.8,36.7c-5.8,13.1-12.2,25.9-17.8,39.1c-2.5-8.3-3-17.1-5.2-25.6c-6.6,4.9-12,11.2-18.5,16.2
				c-12,10.2-25.1,19.5-39.7,25.6c-12.5,5.8-25.6,10.1-38.7,14.2c-18.3,6-36.9,12.5-52,24.7c-6-5.5-13.2-9.6-20.6-12.9
				c-18.2-8.9-38.1-13.4-57-20.7c-10.4-4.1-20.8-8.7-30.3-14.6c-8.7-5.1-16.4-11.7-24.3-18c-5.5-5-10.9-10.2-16.5-15.1
				c-1.6,8.7-2.9,17.5-4.8,26.2c-6.3-13.3-12.3-26.7-18.7-40c-5.3-12-11.3-23.7-16.2-35.9c4.8,0.7,9.4,2.5,14,4
				c26.4,8.4,52.8,16.8,79.1,25.4c-9.9,1.4-20.3,1.1-29.6,5.2c-1.9,0.7-3.5,3-1.8,4.7c20.2,21.6,51,31.9,80.2,29
				c9.1-1.1,18.9-4.5,24.1-12.6c0.7-2.9-0.2-5.8-0.3-8.7c-0.3-9.6-1.3-19.2-1.5-28.8c-11-1.7-22-2.8-32.8-5.5
				c-37.1-8.4-72.2-25.5-101.8-49.5c-7.2-5.4-13.4-11.9-20.1-17.9c-9.2-9.3-17.4-19.6-25.5-30c-5.5,2.8-11,5.7-16.5,8.5
				c-1.2,0.6-2.6,1.5-4,0.7c-2.7-3.2-4.5-6.9-7-10.2c-0.7-1.1-2-1.5-3.2-1c-3.5,1.1-6,4.1-8.6,6.5c-6.8,6.6-12.1,14.5-19.7,20.3
				c-8.1,6.5-18.1,12.6-28.9,11.2c-3.7-0.5-7.4-1.8-10.2-4.3c-3.3-4.1-2-10.1,0.5-14.2c5.5-8.9,14.6-15.3,24.5-18.5
				c12.4-4.3,25.6-5.6,37.7-10.9c-1.9-5.7-6.2-10.7-6.6-16.9c6.3-3.5,12.4-7.3,18.7-10.9c-15.6-33.9-23.8-71.2-23.3-108.5
				c0.4-26.5,4.9-53,13.7-78c2.3-7.8,6.2-15,8.7-22.6c-5.5-3.8-11.2-7.2-16.9-10.7c-1.3-0.6-1.1-2.2-0.7-3.2
				c1.6-4.4,5.1-8.2,5.4-13.1c-9-6.1-20.2-6.2-30.4-8.9c-9.5-2.8-19.2-6.5-26.4-13.5c-5.2-4.9-8.4-12.2-7.2-19.4
				c1-3.8,4.9-5.9,8.5-6.8c7.8-1,15.7,1.5,22.6,5.1c15.2,8.3,24.1,24.1,38.2,33.8c3.3-4.6,6.3-9.5,10.1-13.8c7,2.9,13.4,7,20,10.8
				c7.5-9.6,15-19.2,23.4-28c9.1-9,18.4-17.7,28.5-25.5c37.3-28.7,82.9-46.3,129.7-50.6c1.3-6.8,3.6-13.3,4.2-20.2
				c-12.5-0.1-24.9,0-37.3-0.1c0-2.2-0.1-4.5,0-6.7c12.5-0.1,25.1,0.1,37.6-0.1c-1.7-3.5-4-6.7-5.1-10.5
				C454,183.4,455.3,172.1,461.6,163.9z M477.3,169.3c-4.1,2.8-5.3,8.1-5.6,12.8c-0.2,5.3,1.2,11.2,5.6,14.5c2.1,2,5.7,1.5,7.6-0.6
				c5.9-6.5,6.2-17.1,1.5-24.3C484.5,168.7,480.2,167.1,477.3,169.3z M477.2,261.3c-12.9,0.2-25.8,1.4-38.4,3.9
				c-27,4.9-52.6,15.7-75.9,30c-10,6.8-19.9,13.8-28.6,22.1c-11.8,10-21.6,21.9-31,34.1c-29.9,41.1-44.6,93-40.5,143.7
				c2.2,31.7,12.1,62.7,27.7,90.3c17.6,30.2,42.1,56.5,71.6,75.3c30.9,20,67.1,31.9,103.8,34.3c39.5,2.6,79.7-5.6,114.8-24
				c25.9-13.4,49.2-31.9,67.7-54.5c26.5-31.5,43.4-70.9,48.4-111.8c5.6-45.2-3.5-92.2-25.8-132c-16.5-29.5-39.9-55.3-68.2-74
				C566.3,273.7,521.6,260.6,477.2,261.3z"/>
		</g>
		<g>
			<path d="M430,294.2c6.8-5.9,13.5-12,20.9-17c1.2,1.6,2.5,3.4,2.9,5.5c-13.5,9.8-25.6,21.3-36.9,33.5c-3.7,4.5-8.2,8.4-11.1,13.6
				c23.5,4.5,47.5,6.7,71.5,6.7c0.2-19.6,0-39.2,0.1-58.8c2,0,4,0.1,6,0.1c0.1,19.6-0.1,39.2,0.1,58.8c24.3,0,48.6-2.3,72.6-6.8
				c-7.9-10.8-17.5-20.3-27.1-29.6c-7-6.3-14-12.5-21.6-18.1c1.1-1.7,2.3-3.3,3.5-4.9c19.3,14.1,36.4,31.2,51.2,49.9
				c0.8,1.3,2.6,0.8,3.9,0.8c9.8-1.5,19.2-4.8,28.9-6.6c0.4,1.8,0.8,3.7,1.1,5.5c-9.1,3-18.6,4.8-28,6.8c0.9,3.2,3.2,5.7,5,8.4
				c11.3,17,19.6,35.8,25.9,55.1c2.3,7.1,3.9,14.5,6,21.7c15.2-3.9,30.2-8.7,44.9-14c3.5-1.3,7.1-2.8,10.8-3.6
				c0.3,1.8,1.8,3.7,1.1,5.5c-6.8,3.1-14.1,5.3-21.2,7.7c-11.3,4-22.7,7.4-34.3,10.3c0.2,5.1,1.6,10,2.1,15
				c2.4,16.8,3,33.9,2.4,50.8c-2-0.1-4-0.1-6-0.1c0.7-20.3-0.3-40.8-4.1-60.8c-0.3-1.2-0.5-3.5-2.3-2.7
				c-37.5,9.2-76,14.6-114.7,14.8c-0.2,17.5,0.1,35-0.2,52.5c-2-0.1-4-0.2-6-0.3c0.1-17.4,0.1-34.8,0-52.2
				c-38.9-0.1-77.7-5.5-115.5-14.7c-4.7,20.7-5.1,42.1-5.1,63.3c-1.9,0-3.7,0-5.6,0c-1.1-18.1,0.1-36.3,2.8-54.3
				c0.5-3.7,1.4-7.4,1.6-11.1c-19.3-4.5-38-11.1-56.5-18.2c0.4-1.9,0.9-3.7,1.4-5.5c3.8,0.6,7.3,2.4,10.9,3.7
				c10.7,3.8,21.3,7.7,32.3,10.7c4.5,1.2,8.9,3,13.6,3.3c5.1-24.2,14.1-47.7,26.6-69.1c3-5.7,7.4-10.4,10.3-16.1
				c-10-2-19.9-4.3-29.7-7c0.7-1.8,1.3-3.6,1.9-5.5c9.6,2,19.1,4.9,28.8,6.6c1.5,0,3.6,0.8,4.7-0.8C408.6,315,419.2,304.4,430,294.2
				z M400.5,335.5c-2.3,3.7-5.1,7.2-7.3,11c-13.6,20.7-22.9,44-29,68c-0.6,2.2-0.9,4.5-1.1,6.8c12.4,2.4,24.6,5.8,37.2,7.6
				c25.4,4.3,51.2,6.8,76.9,6.7c0-31.1,0.3-62.1-0.2-93.2c-21.1,0.1-42.1-1.9-62.9-5C409.5,336.8,405.1,335.4,400.5,335.5z
				 M483.3,342.4c0,31.1,0,62.1,0,93.2c38.9-0.3,77.6-5.6,115.3-15.1c-6.4-29.1-17.9-57.4-35.4-81.6c-1.3-1.7-2.7-4.5-5.3-3.3
				C533.3,340,508.3,342.5,483.3,342.4z"/>
		</g>
		<g>
			<path d="M283,510.3c1.9-0.3,3.8-0.6,5.8-0.6c59.7,0,119.4,0,179.1,0c4.8,5.8,8.5,12.4,12.9,18.5c3.4-5,6.9-9.9,10.2-15.1
				c1.2-1.6,2.4-3.8,4.8-3.4c60.4,0.1,120.7-0.2,181.1,0.1c-4.9,10.3-11,19.9-16.4,30c-19.7,35-39.3,69.9-59,104.9
				c-2.1,3.2-3.2,7.2-6,9.8c-33.3,0.2-66.5,0.2-99.8,0c-5.8,6.9-9.7,15.2-15.7,21.9c-4.9-7.1-9.3-14.6-14-21.8
				c-31.4-0.1-62.7,0-94.1,0c-2.6-0.5-6.5,1.2-8.1-1.4c-25.7-45.7-51.4-91.4-77-137.1C285.5,514.2,284.3,512.2,283,510.3z
				 M294,515.8c5.4,12.1,13,23.2,19.1,35c16.1,28.5,32.1,57.1,48.2,85.6c2.3,4.1,4.4,8.4,7.2,12.3c33.6-0.2,67.2-0.1,100.8-0.1
				c4,5.5,6.7,11.9,11.3,16.8c4-5.5,7.3-11.5,11.6-16.8c33.2-0.3,66.5-0.1,99.8-0.1c1-1.5,2-3.1,2.9-4.6
				c19.4-34.5,38.8-69,58.2-103.5c4.3-8.3,9.6-16.1,13.4-24.6c-55.6-0.2-111.2,0-166.8-0.1c-1.4-0.1-3,0.2-3.9,1.4
				c-5.2,7-9.7,14.5-15.1,21.3c-5.5-6.8-10.2-14.1-15-21.4c-0.7-1.7-2.5-1.2-3.9-1.3C406,515.8,350,515.7,294,515.8z"/>
		</g>
		<path d="M354.1,555c7.3-0.2,14.6-0.1,21.9-0.1c5,17.5,10.5,34.8,16,52.1c4-9.6,6.7-19.8,10.2-29.6c2.7-7.4,4.7-15.1,7.6-22.5
			c6.4,0.1,12.8-0.2,19.2,0.2c-0.7,3.7-2.1,7.2-3.4,10.7c-7.6,20.6-14.9,41.2-22.4,61.8c-8,0-16,0-24,0
			c-6.4-18.2-12.9-36.4-19.1-54.6C358.1,567,355.5,561.1,354.1,555z"/>
		<path d="M436.9,555.1c10.5-0.3,21.1-0.6,31.6,0.2c2.9,12.9,6.3,25.7,9.3,38.6c0.7,3.1,1.3,6.4,2.7,9.3
			c3.9-15.9,7.7-31.8,11.1-47.8c5.1-0.9,10.2-0.4,15.3-0.5c5.3,0.1,10.7-0.3,16,0.3c0.4,24.1,0.2,48.1,0.1,72.2
			c-5.7,0.1-11.5,0.2-17.2,0.1c-0.5-20.2,0.4-40.4-0.5-60.5c-5.9,20.1-11.4,40.4-17,60.6c-6,0-12-0.1-18,0
			c-5.4-20.5-10.3-41.2-15.9-61.6c-0.6,20.5,0.4,41.1-0.4,61.6c-5.6-0.2-11.2-0.2-16.8,0C436.4,603.5,436.8,579.3,436.9,555.1z"/>
		<path d="M538,555c6.5-0.1,13-0.4,19.5,0.3c-0.2,13.9,0,27.8-0.1,41.7c0,5,0.6,10.5,4.4,14.1c3.7,4.4,10,4.2,15.2,3.4
			c5.8-1,9.2-7.1,9.6-12.6c0.6-15.7-0.5-31.4,0.6-47.1c6.5-0.1,13-0.1,19.5,0.1c0.1,15.4,0.1,30.8,0,46.1c0.1,6.1-1.8,12.3-5.7,17
			c-4,5.4-10.4,8.3-16.8,9.9c-9.5,1.9-19.5,1.7-28.7-1.6c-9.1-3.6-17.2-12-17.5-22.3c-0.4-9-0.1-18.1-0.2-27.1
			C537.9,569.7,537.5,562.3,538,555z"/>
	</g>
	<g>
		<path d="M193.4,156.5c5.1-2.9,10.9-4.3,16.7-4.5c-9.9,19.6-23.9,36.7-37.9,53.4c-5.3,6.5-12,12.7-20.7,14.1
			c-7.5,1.7-15.2-0.7-21.5-4.7c0-0.4,0-1.1,0-1.4c12.6-9.7,23.4-21.4,34.1-33C172.9,171.4,182.4,162.7,193.4,156.5z"/>
		<path d="M753.6,152c12.4,0.1,22.9,7.7,32,15.3c4.2,3.7,8.5,7.5,12.5,11.5c11.3,12.5,23,24.9,36.2,35.4c-7.9,6.1-19.1,7.8-28.2,3.5
			c-8.5-3.7-13.7-11.6-19.7-18.2C774.4,184.5,762.5,169.1,753.6,152z"/>
		<path d="M115.5,201.8c3-3.4,6.3-6.5,10.2-8.7c-0.2,1.1-0.4,2.2-0.8,3.2c-9.8,25.2-18.6,51.5-18.8,78.9c5.7-4.4,11.3-9,18.3-11.2
			c12.2-3.9,22.1-12.2,31.9-20.2c-5.5,20.4-16.3,40.8-34.9,52c-10,5.6-20.4,10.4-30.9,15c-4.2,1.7-8.4,3.6-12.9,4.3
			c-0.2-6.3,0.5-12.6,0.8-18.9c1.4-17.2,2.4-34.8,8-51.2C93.5,228.9,104.1,214.8,115.5,201.8z"/>
		<path d="M837.9,193.1c6.5,3.5,11.1,9.6,15.8,15.1c9,11.3,17.8,23.2,23.4,36.6c4.9,14.2,6.2,29.3,7.5,44.2
			c0.6,8.7,1.6,17.4,1.4,26.1c-12.7-2.9-24.2-9.6-36-15.1c-10-4.6-19.1-11.4-25.7-20.3c-7.8-10.6-13.7-22.8-16.7-35.6
			c6.3,4.8,12.2,10.3,19.2,14.1c6.7,4.5,14.9,5.9,21.7,10.3c3.4,2,6.3,4.7,9.2,7.4c-0.3-24.1-7-47.6-15.3-70.1
			C840.9,201.5,838.8,197.5,837.9,193.1z"/>
		<path d="M33.7,323.9c2.9-14.2,7.1-28.1,11.5-41.9c6.2,29.6,11.8,59.4,18.1,89c14.6-10.9,29-22,43.6-32.9
			c-1.7,13.5-4.4,27-9.4,39.7c-1.9,5.3-6.3,9-10.4,12.6C74.9,400.6,62.7,411,50.2,421c-6.2-24-13.3-47.8-18-72.1
			C30.5,340.6,32.1,332.1,33.7,323.9z"/>
		<path d="M918.5,282c3.6,10.5,6.6,21.1,9.3,31.9c2.7,11.9,6.2,24.4,3.5,36.6c-4.8,23.8-11.5,47.1-17.8,70.5
			c-11.8-9.7-23.6-19.4-35.2-29.3c-4.7-4-9.8-8-12-14c-5.2-12.6-7.5-26.2-9.5-39.6c14.7,10.8,29.1,22.1,43.7,33
			C906.6,341.4,912.5,311.7,918.5,282z"/>
		<path d="M15,393c6.2,15,11.5,30.3,17.4,45.4c5.4,14.9,11.3,29.6,16.6,44.5c10.2-17,20.1-34.3,29.8-51.6
			c2.2,12.1,3.3,24.5,2.2,36.8c-0.7,7.6-3.4,14.9-6.6,21.8c-7.1,15.2-15.2,29.9-23.7,44.3c-11.4-17.5-22.1-35.5-32.1-53.9
			c-3.9-7.8-8.4-15.7-9.5-24.5c-1.3-10.2,0-20.4,0.9-30.6C11.4,414.5,12.9,403.7,15,393z"/>
		<path d="M914.5,482.9c11.6-29.9,22.4-60.1,34.2-89.9c2.9,14.2,4.8,28.6,6,43.1c0.6,10,1.2,20.5-2.8,30
			c-4.5,11-10.6,21.2-16.4,31.5c-6.6,11.6-13.9,22.9-20.8,34.3c-0.6,0.7-0.9,2.6-2.1,1.5c-9.3-16.3-18.7-32.6-25.9-50
			c-4-9.2-4.6-19.4-4.2-29.3c0.3-7.4,1-14.9,2.6-22.2C895,448.8,904.7,465.9,914.5,482.9z"/>
		<path d="M916.4,558.6c15.2-16.8,30.3-33.7,45.5-50.6v2.1c-1.9,6.6-2.1,13.5-3.5,20.3c-2.3,11.8-4.5,23.8-9.8,34.6
			c-5.2,8.8-12.9,15.7-19.4,23.5c-9.1,9.5-18.3,19.1-27.4,28.6c-6.5,6.4-12.5,13.3-19.4,19.3c-3.5-10.8-6.8-21.7-9.7-32.7
			c-3.1-11.1-6-22.3-7.4-33.8c-1-7.4,0.2-14.9,2.1-22c2.7-10.2,6.3-20.2,10.8-29.8c5.9,21.3,11.5,42.7,17.4,64
			C902.3,574,909.4,566.3,916.4,558.6z"/>
		<path d="M3,509.5c4.1,3.4,7.1,7.8,10.8,11.6c15.4,17.2,30.9,34.4,46.4,51.6c2.7,2.8,4.9,6.2,8.2,8.5c5.9-21,11.4-42.2,17.1-63.3
			c5.2,10.6,8.9,22,11.8,33.4c2.1,8,1.9,16.3,0.4,24.4c-3.8,20.6-10.1,40.6-16.2,60.5c-8.1-7.1-15.3-15.2-22.9-22.9
			c-11.9-12.5-24-24.6-35.3-37.7c-2.4-2.6-4.8-5.4-6.6-8.5c-4.9-7.7-6.8-16.8-9-25.6C5.6,531,3.1,520.4,3,509.5z"/>
		<path d="M107.1,609.9c6.9,14.5,13.3,29.3,19.8,44c1.8,3.8,3.5,7.8,3.7,12.1c1.8,19,1.7,38,2.4,57.1c-0.1,9,0.4,18.1,0,27.1
			c-15.8-11.2-31.6-22.5-47.2-34c-7.6-6-15.7-11.5-22.8-18.2c-6.4-6.3-13.4-12.2-17.4-20.4c-7.9-15.9-14.3-32.5-21.3-48.9
			c2.7,1.5,5.3,3.3,7.7,5.3c16.2,12.2,32.5,24.2,48.7,36.3c7.3,4.9,13.8,10.9,21.4,15.4c1.4-19.2,2.4-38.4,3.7-57.5
			C106.1,622,106.2,615.9,107.1,609.9z"/>
		<path d="M839,649.1c5.8-13.1,11.5-26.3,17.7-39.2c2.2,25.3,3.1,50.7,5,76c3.6-1.9,6.6-4.6,9.8-7c18.8-13.9,37.5-27.8,56.2-41.8
			c3.9-2.7,7.4-5.9,11.5-8.2c-3.9,10.4-8.5,20.5-12.8,30.8c-4.9,10.6-8.8,22.3-17.7,30.5c-14.3,15-31.7,26.6-48.2,38.8
			c-9.9,7.2-19.8,14.4-29.8,21.4c-0.4-15.7,0.3-31.4,0.5-47.1c0.5-13.1,0.5-26.2,2.1-39.1C834.2,658.6,837,654,839,649.1z"/>
		<path d="M165.2,690c10.7,12.6,20.4,26,30.8,38.9c5.2,7.2,11.9,13.7,14.5,22.4c3,9.5,4.7,19.3,7.3,28.8c7,26,11,52.6,17,78.8
			c-17.9-6.5-35.6-13.5-53.3-20.5c-17.5-7.4-35.5-14.1-51.5-24.4c-7.5-4.7-12.5-12.2-18.1-18.9c-11.6-15-22.2-30.7-32.5-46.5
			c-0.9-1.4-1.7-2.8-2.5-4.3c35.6,16.5,71.1,33.1,106.7,49.7C177.7,759.2,171.2,724.6,165.2,690z"/>
		<path d="M767.3,729.6c10.5-13.1,20.4-26.7,31.2-39.6c-5.9,34.5-12.4,68.9-18.3,103.5c10.3-3.9,20-9.1,30.1-13.6
			c25.5-11.8,51-23.8,76.5-35.6c-4.7,8.4-10.2,16.2-15.7,24.1c-5.9,8.7-12.1,17.3-18.5,25.7c-5.9,7.3-11.4,15.4-19.6,20.3
			c-18.1,11.3-38.3,18.6-58,26.8c-15.3,6.2-30.7,12-46.1,17.8c5.7-26.8,10.1-53.9,17.3-80.4c2.5-9,4.1-18.3,6.9-27.2
			C755.7,742.8,762.2,736.5,767.3,729.6z"/>
		<path d="M303.3,874.8c24.3-9.1,49.4-17,75.5-17.7c34.7-1.2,68.2,11.8,97.4,29.7c1.8,0.9,4,3.1,6.1,1.6c28.9-18,62-31.7,96.6-31.2
			c30.3-0.2,59.3,10.2,87.3,20.7c30,10,63.3,13.2,93.7,3.2c-16.9,15-36.8,26.3-57.4,35.4c-8.2,4.2-17.6,4.8-26.6,4.7
			c-17.5-0.4-34.9-3.7-51.9-7.6c-13.1-2.9-25.8-7.3-38.9-9.9c-25.7-5.8-53-4.4-78,4.1c10.2,7.7,19.6,16.5,29.7,24.4
			c10.5,7.1,21.5,14.9,34.4,16.1c11.3,1.4,22.7,0.5,34-0.9c-7.9,7.8-19.4,10.9-30.3,11c-13.8,0.5-27.2-4-39.5-9.8
			c-11.3-5.8-21.9-12.9-33-19c-6.2-3.4-12.5-6.8-18.8-10c-1.3-0.5-2.7-1.7-4.1-0.8c-14.3,7-28,14.9-41.5,23.2
			c-15.6,9.4-33.3,17-51.9,16.4c-10.9,0-22.2-3.5-30.1-11.1c6.3,0.7,12.7,1.9,19.1,1.7c9.9,0.2,20.1-0.3,29.2-4.4
			c12.5-5.9,23.5-14.4,33.8-23.4c5.2-4.6,10.8-8.7,16.1-13.2c-8.8-3.6-18.3-5-27.7-6.4c-20.4-2.9-41.2-0.5-61.1,4.8
			c-18.8,5.3-37.8,10.2-57.2,12.9c-14.7,1.8-30.1,3.7-44.5-0.7c-22.2-9.4-43.7-21.1-61.7-37.2C234.9,891.8,271.3,887.2,303.3,874.8z
			"/>
	</g>
</g>
</svg>
